Language: Spanish

Subtitles: English and Spanish (optional) Portuguese.srt
 
http://www.imdb.com/title/tt0261311

A new teacher for literature, Ulises, comes to a small town near the sea and falls in love with a young woman, Martina. This woman is loved by a rich businessman but choose Ulises. Soon after their marriage and the birth of their son Ulises vanishes and is supposed to be dead. In the meanwhile Martina marries the businessman, but years later Ulises appears again...


Format : Matroska
      File size : 1.47 GiB
      Duration : 1h 35mn
      Overall bit rate : 2 198 Kbps
      Encoded date : UTC 2013-04-09 11:27:13
      Writing application : mkvmerge v6.1.0 ('Old Devil') built on Mar  2 2013 14:32:37
      Writing library : libebml v1.3.0 + libmatroska v1.4.0
   Video #1
      ID : 1
      Format : AVC
      Format/Info : Advanced Video Codec
      Format profile : High@L3.1
      Format settings, CABAC : Yes
      Format settings, ReFrames : 8 frames
      Muxing mode : Container profile=Unknown@3.1
      Codec ID : V_MPEG4/ISO/AVC
      Duration : 1h 35mn
      Bit rate : 1 963 Kbps
      Nominal bit rate : 2 000 Kbps
      Width : 718 pixels
      Height : 576 pixels
      Display aspect ratio : 16:9
      Frame rate : 25.000 fps
      Resolution : 24 bits
      Colorimetry : 4:2:0
      Scan type : Progressive
      Bits/(Pixel*Frame) : 0.190
      Stream size : 1.31 GiB (89%)
      Writing library : x264 core 130 r2273 b3065e6
      Encoding settings : cabac=1 / ref=8 / deblock=1:-3:-3 / analyse=0x3:0x133 / me=umh / subme=10 / psy=1 / psy_rd=1.00:0.00 / mixed_ref=1 / me_range=24 / chroma_me=1 / trellis=2 / 8x8dct=1 / cqm=0 / deadzone=21,11 / fast_pskip=0 / chroma_qp_offset=-2 / threads=3 / lookahead_threads=1 / sliced_threads=0 / nr=0 / decimate=0 / interlaced=0 / bluray_compat=0 / constrained_intra=0 / bframes=5 / b_pyramid=2 / b_adapt=2 / b_bias=0 / direct=3 / weightb=1 / open_gop=0 / weightp=2 / keyint=250 / keyint_min=25 / scenecut=40 / intra_refresh=0 / rc_lookahead=100 / rc=2pass / mbtree=1 / bitrate=2000 / ratetol=1.0 / qcomp=0.60 / qpmin=0 / qpmax=69 / qpstep=4 / cplxblur=20.0 / qblur=0.5 / vbv_maxrate=17500 / vbv_bufsize=17500 / nal_hrd=none / ip_ratio=1.40 / aq=1:1.00
   Audio #2
      ID : 2
      Format : AC-3
      Format/Info : Audio Coding 3
      Codec ID : A_AC3
      Duration : 1h 35mn
      Bit rate mode : Constant
      Bit rate : 192 Kbps
      Channel(s) : 2 channels
      Channel positions : L R
      Sampling rate : 48.0 KHz
      Stream size : 132 MiB (9%)
   Text #3
      ID : 3
      Format : VobSub
      Codec ID : S_VOBSUB
      Codec ID/Info : The same subtitle format used on DVDs
      Language : Spanish
   Text #4
      ID : 4
      Format : VobSub
      Codec ID : S_VOBSUB
      Codec ID/Info : The same subtitle format used on DVDs
      Language : Spanish
   Text #5
      ID : 5
      Format : VobSub
      Codec ID : S_VOBSUB
      Codec ID/Info : The same subtitle format used on DVDs
      Language : Spanish
   Text #6
      ID : 6
      Format : VobSub
      Codec ID : S_VOBSUB
      Codec ID/Info : The same subtitle format used on DVDs
   Text #7
      ID : 7
      Format : VobSub
      Codec ID : S_VOBSUB
      Codec ID/Info : The same subtitle format used on DVDs
   Text #8
      ID : 8
      Format : VobSub
      Codec ID : S_VOBSUB
      Codec ID/Info : The same subtitle format used on DVDs


KG for endrju